# xmcd CD database file
#
# Track frame offsets:
#	150
#	57230
#	100000
#	129887
#	160537
#
# Disc length: 2636 seconds
#
# Revision: 0
# Processed by: cddbd v1.4PL0 Copyright (c) Steve Scherf et al.
# Submitted via: CDex 1.50Beta5
#
DISCID=2f0a4a05
DTITLE=Woody Shaw - Love Dance
DYEAR=1900
DGENRE=Jazz
TTITLE0=Love Dance
TTITLE1=Obsequious
TTITLE2=Sun Bath
TTITLE3=Zoltan
TTITLE4=Soulfully I Love You
EXTD=
EXTT0=
EXTT1=
EXTT2=
EXTT3=
EXTT4=
PLAYORDER=
